# This file uses centimeters as units for non-parametric coordinates.

mtllib KingdomFlag_UVED.mtl
g default
v -40.781250 321.266571 5.470695
v 40.781250 321.266571 5.470695
v -40.781250 563.278076 5.470695
v 40.781250 563.278076 5.470695
v -32.624992 321.266571 5.470695
v -32.624992 563.278076 5.470695
v 34.274506 321.266571 5.470695
v 34.274506 563.278076 5.470695
v -40.781250 699.338135 5.470695
v -32.624992 699.338135 5.470695
v 34.274506 699.338135 5.470695
v 40.781250 699.338135 5.470695
vt 0.404392 0.772301
vt 0.409039 0.772265
vt 0.408183 0.913357
vt 0.403360 0.913304
vt 0.447377 0.771964
vt 0.447984 0.913800
vt 0.451127 0.771935
vt 0.451878 0.913844
vt 0.407672 0.997501
vt 0.402744 0.997391
vt 0.452325 0.998503
vt 0.448346 0.998414
vn 0.000000 0.000000 1.000000
vn 0.000000 0.000000 1.000000
vn 0.000000 0.000000 1.000000
vn 0.000000 0.000000 1.000000
vn 0.000000 0.000000 1.000000
vn 0.000000 0.000000 1.000000
vn 0.000000 0.000000 1.000000
vn 0.000000 0.000000 1.000000
vn 0.000000 0.000000 1.000000
vn 0.000000 0.000000 1.000000
vn 0.000000 0.000000 1.000000
vn 0.000000 0.000000 1.000000
vn 0.000000 0.000000 1.000000
vn 0.000000 0.000000 1.000000
vn 0.000000 0.000000 1.000000
vn 0.000000 0.000000 1.000000
s 1
g pCube2
usemtl initialShadingGroup
f 1/1/1 5/2/2 6/3/3 3/4/4
f 6/3/3 5/2/2 7/5/5 8/6/6
f 8/6/6 7/5/5 2/7/7 4/8/8
s off
f 3/4/9 6/3/10 10/9/11 9/10/12
f 8/6/13 4/8/14 12/11/15 11/12/16
